<svg width="92" height="51" viewBox="0 0 92 51" fill="none" xmlns="http://www.w3.org/2000/svg">
<path d="M29 32C29 26.4772 24.5228 22 19 22C13.4772 22 9 26.4771 9 32C9 36.9913 12.6569 41.1284 17.4375 41.8785V34.8906H14.8984V32H17.4375V29.7969C17.4375 27.2906 18.9305 25.9063 21.2146 25.9063C22.3088 25.9063 23.4531 26.1016 23.4531 26.1016V28.5625H22.1922C20.9498 28.5625 20.5625 29.3334 20.5625 30.1242V32H23.3359L22.8926 34.8906H20.5625V41.8785C25.3431 41.1284 29 36.9913 29 32Z" fill="#1877F2"/>
<path d="M22.8926 34.8906L23.3359 32H20.5625V30.1242C20.5625 29.3333 20.9499 28.5625 22.1922 28.5625H23.4531V26.1016C23.4531 26.1016 22.3088 25.9062 21.2146 25.9062C18.9305 25.9062 17.4375 27.2906 17.4375 29.7969V32H14.8984V34.8906H17.4375V41.8785C17.9544 41.9595 18.4768 42.0001 19 42C19.5232 42.0002 20.0456 41.9595 20.5625 41.8785V34.8906H22.8926Z" fill="white"/>
</svg>
