<svg width="166" height="54" viewBox="0 0 166 54" fill="none" xmlns="http://www.w3.org/2000/svg">
<g opacity="0.6">
<path d="M0 27C0 12.3645 11.8645 0.5 26.5 0.5H83H139.5C154.136 0.5 166 12.3645 166 27C166 41.6355 154.136 53.5 139.5 53.5H26.5C11.8644 53.5 0 41.6355 0 27Z" fill="#200DFB"/>
<path d="M0 27C0 12.3645 11.8645 0.5 26.5 0.5H83H139.5C154.136 0.5 166 12.3645 166 27C166 41.6355 154.136 53.5 139.5 53.5H26.5C11.8644 53.5 0 41.6355 0 27Z" fill="#200DFB"/>
<path d="M0 27C0 12.3645 11.8645 0.5 26.5 0.5H83H139.5C154.136 0.5 166 12.3645 166 27C166 41.6355 154.136 53.5 139.5 53.5H26.5C11.8644 53.5 0 41.6355 0 27Z" fill="#200DFB"/>
</g>
</svg>
