<svg width="187" height="54" viewBox="0 0 187 54" fill="none" xmlns="http://www.w3.org/2000/svg">
<g opacity="0.6">
<path d="M0.5 27C0.5 12.3645 12.3645 0.5 27 0.5H160C174.636 0.5 186.5 12.3645 186.5 27C186.5 41.6355 174.636 53.5 160 53.5H27C12.3645 53.5 0.5 41.6355 0.5 27Z" fill="#200DFB"></path>
<path d="M0.5 27C0.5 12.3645 12.3645 0.5 27 0.5H160C174.636 0.5 186.5 12.3645 186.5 27C186.5 41.6355 174.636 53.5 160 53.5H27C12.3645 53.5 0.5 41.6355 0.5 27Z" fill="#200DFB"></path>
<path d="M0.5 27C0.5 12.3645 12.3645 0.5 27 0.5H160C174.636 0.5 186.5 12.3645 186.5 27C186.5 41.6355 174.636 53.5 160 53.5H27C12.3645 53.5 0.5 41.6355 0.5 27Z" fill="#200DFB"></path>
</g>
</svg>
