<svg width="138" height="57" viewBox="0 0 138 57" fill="none" xmlns="http://www.w3.org/2000/svg">
<path d="M1 28.5C1 13.3122 13.3122 1 28.5 1H109.5C124.688 1 137 13.3122 137 28.5C137 43.6878 124.688 56 109.5 56H28.5C13.3122 56 1 43.6878 1 28.5Z" fill="#D9D9D9"></path>
<path d="M1 28.5C1 13.3122 13.3122 1 28.5 1H109.5C124.688 1 137 13.3122 137 28.5C137 43.6878 124.688 56 109.5 56H28.5C13.3122 56 1 43.6878 1 28.5Z" fill="#CC92EF"></path>
<path d="M1 28.5C1 13.3122 13.3122 1 28.5 1H109.5C124.688 1 137 13.3122 137 28.5C137 43.6878 124.688 56 109.5 56H28.5C13.3122 56 1 43.6878 1 28.5Z" stroke="black" stroke-width="2"></path>
</svg>
